<svg width="172" height="116" viewBox="0 0 172 116" fill="none" xmlns="http://www.w3.org/2000/svg">
<path d="M5.93457 2.36914L42.8501 4.91921L104.62 27.3228L134.408 63.9339L159.993 112.02" stroke="#F96501"/>
<path d="M171.324 112.383L164.013 83.2402L106.812 25.3184L134.956 61.383L161.272 81.6009" stroke="#F96501"/>
<path d="M79.9482 66.4824L119.422 106.918" stroke="#F96501"/>
<path d="M81.2275 70.8555L91.6441 114.205" stroke="#F96501"/>
<path d="M32.25 110.199L76.6582 67.2129" stroke="#F96501"/>
<path d="M45.2256 8.19727L79.9482 64.6619" stroke="#F96501"/>
<path d="M76.4759 64.298L2.09668 33.5156" stroke="#F96501"/>
<path d="M40.2912 6.55859L1 31.3301" stroke="#F96501"/>
<path d="M5.93457 101.453L28.4128 110.561" stroke="#F96501"/>
<path d="M4.83691 99.0076L38.6457 91.1753L99.8672 28.5176L141.717 98.279L137.696 103.926L41.7524 92.6324L36.2699 95.1825L48.6969 113.943L4.83691 46.1859" stroke="#F96501" stroke-width="5"/>
<path d="M100.051 28.2331L2.64551 6.74023" stroke="#F96501"/>
<path d="M43.0332 0.5C45.7021 0.500029 47.8328 2.57722 47.833 5.09961C47.833 7.62219 45.7023 9.70017 43.0332 9.7002C40.3641 9.7002 38.2334 7.62221 38.2334 5.09961C38.2336 2.5772 40.3642 0.5 43.0332 0.5Z" fill="white" stroke="#F96501"/>
<path d="M79.9484 62.5918C82.4495 62.5918 84.5389 64.5484 84.5389 67.03C84.5382 69.5116 82.4495 71.4682 79.9484 71.4682C77.4475 71.4682 75.3594 69.511 75.3594 67.03C75.3594 64.5484 77.4475 62.5918 79.9484 62.5918Z" fill="white" stroke="#F96501"/>
<path d="M30.6059 106.307C33.1071 106.307 35.1958 108.264 35.1958 110.745C35.1957 113.226 33.1071 115.183 30.6059 115.183C28.1048 115.183 26.0167 113.226 26.0166 110.745C26.0166 108.264 28.1047 106.307 30.6059 106.307Z" fill="white" stroke="#F96501"/>
</svg>
