<svg width="928" height="464" viewBox="0 0 928 464" fill="none" xmlns="http://www.w3.org/2000/svg">
<path d="M494.904 33.2779C500.469 33.2779 504.981 29.3423 504.981 24.4876C504.981 19.6328 500.469 15.6973 494.904 15.6973C489.338 15.6973 484.827 19.6328 484.827 24.4876C484.827 29.3423 489.338 33.2779 494.904 33.2779Z" fill="white"/>
<path d="M494.904 16.1973C500.259 16.1973 504.481 19.9708 504.481 24.4873C504.481 29.004 500.259 32.7783 494.904 32.7783C489.548 32.7783 485.327 29.0039 485.327 24.4873C485.327 19.9708 489.548 16.1973 494.904 16.1973Z" stroke="#F96501" stroke-opacity="0.7"/>
<path d="M494.903 17.4492C499.179 17.4492 502.861 20.5072 502.861 24.4858C502.861 28.4647 499.179 31.5236 494.903 31.5236C490.613 31.5235 486.946 28.4647 486.946 24.4858C486.946 20.5072 490.613 17.4493 494.903 17.4492Z" stroke="#F96501" stroke-opacity="0.7" stroke-width="3"/>
<path d="M800.334 460.231V356.892L861.499 216.352L925.978 178.633L906.694 110.947L698.377 245.804L679.093 151.249L768.916 63.9277M768.916 63.9277L916.052 76.3284M768.916 63.9277L900.634 106.297" stroke="#F96501" stroke-opacity="0.7" stroke-width="3"/>
<path d="M769.228 63.4141L800.164 357.889L897.42 317.076" stroke="#F96501" stroke-opacity="0.7" stroke-width="3"/>
<path d="M801.126 357.264L549.201 226.664L648.439 349.521" stroke="#F96501" stroke-opacity="0.7" stroke-width="3"/>
<path d="M549.202 226.664L484.525 305.149L373.975 300.991" stroke="#F96501" stroke-opacity="0.7" stroke-width="3"/>
<path d="M548.974 226.662L567.677 127.082L462.025 107.992L406.438 195.188" stroke="#F96501" stroke-opacity="0.7" stroke-width="3"/>
<path d="M462.423 108.119L274.282 102.971L271.521 185.851" stroke="#F96501" stroke-opacity="0.7" stroke-width="3"/>
<path d="M274.327 103.599L263.693 1.88281" stroke="#F96501" stroke-opacity="0.7" stroke-width="3"/>
<path d="M274.325 102.974L413.717 5.65234" stroke="#F96501" stroke-opacity="0.7" stroke-width="3"/>
<path d="M437.661 7.48371L462.424 107.367L397.493 66.6927L426.107 4.39453" stroke="#F96501" stroke-opacity="0.7" stroke-width="3"/>
<path d="M461.843 107.369L494.408 26.3054L577.193 5.65234" stroke="#F96501" stroke-opacity="0.7" stroke-width="3"/>
<path d="M759.146 50.8566L716.033 3.76562" stroke="#F96501" stroke-opacity="0.7" stroke-width="3"/>
<path d="M778.742 48.3462L798.889 6.90625" stroke="#F96501" stroke-opacity="0.7" stroke-width="3"/>
<path d="M580.902 16.3223L567.112 128.65L679.093 151.944" stroke="#F96501" stroke-opacity="0.7" stroke-width="3"/>
<path d="M679.644 152.575L651.992 88.4929L588.958 18.209" stroke="#F96501" stroke-opacity="0.7" stroke-width="3"/>
<path d="M595.671 13.1836L758.028 60.2746" stroke="#F96501" stroke-opacity="0.7" stroke-width="3"/>
<path d="M263.124 96.6901L157.316 31.3761L195.885 7.53125" stroke="#F96501" stroke-opacity="0.7" stroke-width="3"/>
<path d="M157.319 30.7637L95.1763 102.97" stroke="#F96501" stroke-opacity="0.7" stroke-width="3"/>
<path d="M157.871 30.7635L11.2017 16.3223" stroke="#F96501" stroke-opacity="0.7" stroke-width="3"/>
<path d="M800.856 464C805.34 464 808.974 460.486 808.974 456.151C808.974 451.817 805.34 448.303 800.856 448.303C796.373 448.303 792.739 451.817 792.739 456.151C792.739 460.486 796.373 464 800.856 464Z" fill="white"/>
<path d="M800.857 448.803C805.08 448.803 808.474 452.109 808.474 456.151C808.474 460.194 805.08 463.5 800.857 463.5C796.634 463.5 793.239 460.194 793.239 456.151C793.239 452.109 796.634 448.803 800.857 448.803Z" stroke="#F96501" stroke-opacity="0.7"/>
<path d="M800.857 450.059C803.859 450.059 806.846 452.517 806.846 456.154C806.846 459.79 803.859 462.249 800.857 462.249C797.841 462.249 794.854 459.79 794.854 456.154C794.854 452.517 797.841 450.059 800.857 450.059Z" stroke="#F96501" stroke-opacity="0.7" stroke-width="3"/>
<path d="M8.39771 23.8592C13.0356 23.8592 16.7952 20.6264 16.7952 16.6386C16.7952 12.6507 13.0356 9.41797 8.39771 9.41797C3.75984 9.41797 0 12.6507 0 16.6386C0 20.6264 3.75984 23.8592 8.39771 23.8592Z" fill="white"/>
<path d="M8.39746 9.91797C12.8327 9.91797 16.2949 12.9952 16.2949 16.6387C16.2949 20.2821 12.8327 23.3594 8.39746 23.3594C3.96237 23.3593 0.500061 20.2821 0.5 16.6387C0.5 12.9952 3.96233 9.91808 8.39746 9.91797Z" stroke="#F96501" stroke-opacity="0.7"/>
<path d="M8.39882 11.1719C11.7827 11.1719 14.671 13.5515 14.671 16.6391C14.671 19.7267 11.7827 22.1063 8.39882 22.1063C5.01491 22.106 2.12646 19.7266 2.12646 16.6391C2.12646 13.5517 5.01491 11.1721 8.39882 11.1719Z" stroke="#F96501" stroke-opacity="0.7" stroke-width="3"/>
<path d="M95.46 107.367C99.3249 107.367 102.458 104.415 102.458 100.774C102.458 97.1333 99.3249 94.1816 95.46 94.1816C91.5951 94.1816 88.4619 97.1333 88.4619 100.774C88.4619 104.415 91.5951 107.367 95.46 107.367Z" fill="white"/>
<path d="M95.46 94.6816C99.0772 94.6816 101.958 97.4372 101.958 100.774C101.958 104.112 99.0772 106.867 95.46 106.867C91.8427 106.867 88.9619 104.112 88.9619 100.774C88.9619 97.4372 91.8427 94.6817 95.46 94.6816Z" stroke="#F96501" stroke-opacity="0.7"/>
<path d="M95.4591 95.9336C97.8943 95.9336 100.33 97.8755 100.33 100.773C100.33 103.671 97.8943 105.612 95.4591 105.612C93.0096 105.612 90.5742 103.671 90.5742 100.773C90.5742 97.8756 93.0096 95.9337 95.4591 95.9336Z" stroke="#F96501" stroke-opacity="0.7" stroke-width="3"/>
<path d="M272.923 190.878C277.406 190.878 281.041 187.504 281.041 183.343C281.041 179.182 277.406 175.809 272.923 175.809C268.44 175.809 264.805 179.182 264.805 183.343C264.805 187.504 268.44 190.878 272.923 190.878Z" fill="white"/>
<path d="M272.923 176.309C277.166 176.309 280.54 179.492 280.541 183.343C280.541 187.193 277.166 190.378 272.923 190.378C268.68 190.378 265.305 187.193 265.305 183.343C265.305 179.492 268.681 176.309 272.923 176.309Z" stroke="#F96501" stroke-opacity="0.7"/>
<path d="M272.924 177.557C276.01 177.557 278.913 179.947 278.913 183.339C278.913 186.73 276.01 189.12 272.924 189.12C269.837 189.12 266.935 186.73 266.935 183.339C266.935 179.947 269.837 177.557 272.924 177.557Z" stroke="#F96501" stroke-opacity="0.7" stroke-width="3"/>
<path d="M373.69 305.776C377.246 305.776 380.128 302.965 380.128 299.498C380.128 296.03 377.246 293.219 373.69 293.219C370.135 293.219 367.252 296.03 367.252 299.498C367.252 302.965 370.135 305.776 373.69 305.776Z" fill="white"/>
<path d="M373.69 293.719C376.982 293.719 379.628 296.318 379.628 299.497C379.628 302.677 376.982 305.276 373.69 305.276C370.399 305.276 367.752 302.677 367.752 299.497C367.752 296.317 370.399 293.719 373.69 293.719Z" stroke="#F96501" stroke-opacity="0.7"/>
<path d="M373.69 294.971C375.757 294.971 378.008 296.712 378.008 299.496C378.008 302.281 375.757 304.022 373.69 304.022C371.623 304.022 369.386 302.281 369.386 299.496C369.386 296.712 371.623 294.971 373.69 294.971Z" stroke="#F96501" stroke-opacity="0.7" stroke-width="3"/>
<path d="M398.043 74.7175C402.371 74.7175 405.881 71.3442 405.881 67.183C405.881 63.0218 402.371 59.6484 398.043 59.6484C393.714 59.6484 390.205 63.0218 390.205 67.183C390.205 71.3442 393.714 74.7175 398.043 74.7175Z" fill="white"/>
<path d="M398.043 60.1484C402.114 60.1485 405.381 63.3162 405.381 67.1826C405.381 71.0492 402.114 74.2177 398.043 74.2178C393.972 74.2178 390.705 71.0493 390.705 67.1826C390.705 63.3161 393.972 60.1484 398.043 60.1484Z" stroke="#F96501" stroke-opacity="0.7"/>
<path d="M398.042 61.4004C400.917 61.4007 403.763 63.7288 403.763 67.1815C403.763 70.6343 400.917 72.9633 398.042 72.9636C395.182 72.9636 392.336 70.6345 392.336 67.1815C392.336 63.7286 395.182 61.4004 398.042 61.4004Z" stroke="#F96501" stroke-opacity="0.7" stroke-width="3"/>
<path d="M651.37 94.8104C655.544 94.8104 658.928 91.5776 658.928 87.5897C658.928 83.6019 655.544 80.3691 651.37 80.3691C647.196 80.3691 643.812 83.6019 643.812 87.5897C643.812 91.5776 647.196 94.8104 651.37 94.8104Z" fill="white"/>
<path d="M651.37 80.8691C655.29 80.8691 658.428 83.8994 658.428 87.5898C658.428 91.2802 655.29 94.3105 651.37 94.3105C647.451 94.3104 644.313 91.2801 644.312 87.5898C644.312 83.8995 647.451 80.8693 651.37 80.8691Z" stroke="#F96501" stroke-opacity="0.7"/>
<path d="M651.371 82.1211C654.104 82.1211 656.808 84.3197 656.808 87.5884C656.808 90.8572 654.104 93.0555 651.371 93.0555C648.653 93.0555 645.948 90.8572 645.948 87.5884C645.948 84.3197 648.653 82.1212 651.371 82.1211Z" stroke="#F96501" stroke-opacity="0.7" stroke-width="3"/>
<path d="M647.181 356.637C651.51 356.637 655.019 353.404 655.019 349.416C655.019 345.428 651.51 342.195 647.181 342.195C642.852 342.195 639.343 345.428 639.343 349.416C639.343 353.404 642.852 356.637 647.181 356.637Z" fill="white"/>
<path d="M647.181 342.695C651.273 342.695 654.519 345.742 654.519 349.416C654.519 353.09 651.273 356.137 647.181 356.137C643.089 356.137 639.843 353.09 639.843 349.416C639.843 345.742 643.089 342.695 647.181 342.695Z" stroke="#F96501" stroke-opacity="0.7"/>
<path d="M647.178 343.947C650.123 343.947 652.884 346.209 652.884 349.415C652.884 352.62 650.123 354.881 647.178 354.881C644.233 354.881 641.458 352.62 641.458 349.415C641.458 346.209 644.233 343.947 647.178 343.947Z" stroke="#F96501" stroke-opacity="0.7" stroke-width="3"/>
<path d="M698.959 252.406C703.133 252.406 706.517 249.173 706.517 245.185C706.517 241.198 703.133 237.965 698.959 237.965C694.785 237.965 691.401 241.198 691.401 245.185C691.401 249.173 694.785 252.406 698.959 252.406Z" fill="white"/>
<path d="M698.958 238.465C702.878 238.465 706.016 241.495 706.016 245.186C706.016 248.876 702.878 251.906 698.958 251.906C695.039 251.906 691.901 248.876 691.901 245.186C691.901 241.495 695.039 238.465 698.958 238.465Z" stroke="#F96501" stroke-opacity="0.7"/>
<path d="M698.959 239.721C701.677 239.721 704.396 241.919 704.396 245.187C704.396 248.456 701.677 250.655 698.959 250.655C696.241 250.655 693.536 248.456 693.536 245.187C693.536 241.919 696.241 239.721 698.959 239.721Z" stroke="#F96501" stroke-opacity="0.7" stroke-width="3"/>
<path d="M800.858 376.098C812.762 376.098 822.412 367.384 822.412 356.634C822.412 345.884 812.762 337.17 800.858 337.17C788.954 337.17 779.304 345.884 779.304 356.634C779.304 367.384 788.954 376.098 800.858 376.098Z" fill="white"/>
<path d="M800.858 337.67C812.535 337.67 821.911 346.207 821.912 356.634C821.912 367.061 812.535 375.599 800.858 375.599C789.181 375.599 779.804 367.061 779.804 356.634C779.804 346.207 789.181 337.67 800.858 337.67Z" stroke="#F96501" stroke-opacity="0.7"/>
<path d="M800.857 338.924C811.405 338.924 820.283 346.702 820.283 356.635C820.283 366.568 811.405 374.347 800.857 374.347C790.295 374.347 781.417 366.568 781.417 356.635C781.417 346.702 790.295 338.925 800.857 338.924Z" stroke="#F96501" stroke-opacity="0.7" stroke-width="3"/>
<path d="M769.496 83.5067C781.091 83.5067 790.49 74.7922 790.49 64.0424C790.49 53.2926 781.091 44.5781 769.496 44.5781C757.902 44.5781 748.502 53.2926 748.502 64.0424C748.502 74.7922 757.902 83.5067 769.496 83.5067Z" fill="white"/>
<path d="M769.497 45.0781C780.851 45.0782 789.99 53.6035 789.991 64.042C789.991 74.4807 780.851 83.0067 769.497 83.0068C758.142 83.0068 749.002 74.4807 749.002 64.042C749.003 53.6034 758.142 45.0781 769.497 45.0781Z" stroke="#F96501" stroke-opacity="0.7"/>
<path d="M769.497 46.334C779.705 46.3343 788.371 54.0666 788.371 64.0447C788.371 74.0231 779.705 81.7563 769.497 81.7567C759.303 81.7567 750.638 74.0233 750.638 64.0447C750.638 54.0663 759.303 46.334 769.497 46.334Z" stroke="#F96501" stroke-opacity="0.7" stroke-width="3"/>
<path d="M694.766 153.486C694.766 160.611 688.579 166.387 680.947 166.387C673.33 166.387 667.143 160.611 667.143 153.486C667.143 146.36 673.33 140.584 680.947 140.584C688.579 140.584 694.766 146.36 694.766 153.486Z" fill="white"/>
<path d="M680.947 141.084C688.336 141.084 694.267 146.668 694.267 153.486C694.266 160.303 688.335 165.887 680.947 165.887C673.574 165.887 667.643 160.303 667.643 153.486C667.643 146.668 673.573 141.084 680.947 141.084Z" stroke="#F96501" stroke-opacity="0.7"/>
<path d="M504.716 24.4704C504.716 29.3156 500.256 33.2435 494.762 33.2435C489.283 33.2435 484.823 29.3156 484.823 24.4704C484.823 19.6251 489.283 15.6973 494.762 15.6973C500.256 15.6973 504.716 19.6251 504.716 24.4704Z" fill="white"/>
<path d="M494.762 16.1973C500.041 16.1974 504.215 19.9592 504.215 24.4707C504.215 28.9821 500.041 32.7431 494.762 32.7432C489.498 32.7432 485.323 28.9826 485.323 24.4707C485.323 19.9587 489.498 16.1973 494.762 16.1973Z" stroke="#F96501" stroke-opacity="0.7"/>
<path d="M680.948 142.337C687.164 142.337 692.643 147.119 692.643 153.486C692.643 159.852 687.164 164.634 680.948 164.634C674.732 164.634 669.267 159.852 669.267 153.486C669.267 147.119 674.732 142.337 680.948 142.337ZM494.762 17.4492C498.953 17.4492 502.591 20.4803 502.591 24.4687C502.591 28.4573 498.953 31.4893 494.762 31.4893C490.585 31.4892 486.946 28.4572 486.946 24.4687C486.946 20.4804 490.585 17.4494 494.762 17.4492Z" stroke="#F96501" stroke-opacity="0.7" stroke-width="3"/>
<path d="M405.605 204.686C411.016 204.686 415.402 200.751 415.402 195.896C415.402 191.041 411.016 187.105 405.605 187.105C400.194 187.105 395.808 191.041 395.808 195.896C395.808 200.751 400.194 204.686 405.605 204.686Z" fill="white"/>
<path d="M405.604 187.605C410.791 187.605 414.902 191.367 414.902 195.896C414.902 200.424 410.792 204.187 405.604 204.187C400.418 204.186 396.308 200.424 396.308 195.896C396.308 191.367 400.418 187.606 405.604 187.605Z" stroke="#F96501" stroke-opacity="0.7"/>
<path d="M405.604 188.863C409.681 188.864 413.278 191.874 413.278 195.9C413.278 199.927 409.681 202.938 405.604 202.938C401.526 202.938 397.93 199.927 397.93 195.9C397.93 191.874 401.526 188.863 405.604 188.863Z" stroke="#F96501" stroke-opacity="0.7" stroke-width="3"/>
<path d="M551.722 248.012C565.481 248.012 576.634 238.736 576.634 227.292C576.634 215.849 565.481 206.572 551.722 206.572C537.963 206.572 526.809 215.849 526.809 227.292C526.809 238.736 537.963 248.012 551.722 248.012Z" fill="white"/>
<path d="M551.722 207.072C565.295 207.072 576.135 216.207 576.135 227.292C576.135 238.377 565.295 247.513 551.722 247.513C538.149 247.513 527.309 238.377 527.309 227.292C527.309 216.207 538.149 207.072 551.722 207.072Z" stroke="#F96501" stroke-opacity="0.7"/>
<path d="M551.722 208.324C564.295 208.324 574.518 216.804 574.518 227.291C574.518 237.778 564.295 246.258 551.722 246.258C539.149 246.258 528.941 237.778 528.941 227.291C528.941 216.804 539.149 208.324 551.722 208.324Z" stroke="#F96501" stroke-opacity="0.7" stroke-width="3"/>
<path d="M578.596 33.2775C588.954 33.2775 597.351 25.8281 597.351 16.6388C597.351 7.44943 588.954 0 578.596 0C568.238 0 559.841 7.44943 559.841 16.6388C559.841 25.8281 568.238 33.2775 578.596 33.2775Z" fill="white"/>
<path d="M578.596 0.5C588.736 0.500096 596.851 7.78016 596.851 16.6387C596.851 25.4972 588.736 32.7772 578.596 32.7773C568.456 32.7773 560.341 25.4973 560.341 16.6387C560.341 7.7801 568.456 0.5 578.596 0.5Z" stroke="#F96501" stroke-opacity="0.7"/>
<path d="M578.596 1.75195C587.643 1.75195 595.232 8.29556 595.232 16.6378C595.232 24.98 587.643 31.5237 578.596 31.5237C569.548 31.5237 561.974 24.98 561.974 16.6378C561.974 8.29556 569.548 1.75195 578.596 1.75195Z" stroke="#F96501" stroke-opacity="0.7" stroke-width="3"/>
<path d="M464.108 124.949C475.548 124.949 484.822 116.656 484.822 106.427C484.822 96.1971 475.548 87.9043 464.108 87.9043C452.668 87.9043 443.394 96.1971 443.394 106.427C443.394 116.656 452.668 124.949 464.108 124.949Z" fill="white"/>
<path d="M464.107 88.4043C475.325 88.4043 484.322 96.5243 484.322 106.427C484.322 116.329 475.325 124.449 464.107 124.449C452.89 124.449 443.894 116.329 443.894 106.427C443.894 96.5244 452.89 88.4044 464.107 88.4043Z" stroke="#F96501" stroke-opacity="0.7"/>
<path d="M464.108 89.6562C474.218 89.6562 482.699 97.0294 482.699 106.425C482.699 115.821 474.218 123.195 464.108 123.195C453.999 123.194 445.518 115.821 445.518 106.425C445.518 97.0294 453.999 89.6564 464.108 89.6562Z" stroke="#F96501" stroke-opacity="0.7" stroke-width="3"/>
<path d="M484.54 313.311C490.26 313.311 494.897 308.813 494.897 303.265C494.897 297.717 490.26 293.219 484.54 293.219C478.82 293.219 474.183 297.717 474.183 303.265C474.183 308.813 478.82 313.311 484.54 313.311Z" fill="white"/>
<path d="M484.54 293.719C489.998 293.719 494.396 298.007 494.396 303.265C494.396 308.522 489.998 312.81 484.54 312.811C479.082 312.811 474.683 308.523 474.683 303.265C474.683 298.007 479.082 293.719 484.54 293.719Z" stroke="#F96501" stroke-opacity="0.7"/>
<path d="M484.539 294.971C488.787 294.972 492.78 298.409 492.78 303.264C492.78 308.119 488.787 311.556 484.539 311.557C480.306 311.557 476.313 308.121 476.313 303.264C476.313 298.408 480.306 294.971 484.539 294.971Z" stroke="#F96501" stroke-opacity="0.7" stroke-width="3"/>
<path d="M159.839 48.3465C172.67 48.3465 183.072 39.6321 183.072 28.8822C183.072 18.1324 172.67 9.41797 159.839 9.41797C147.007 9.41797 136.605 18.1324 136.605 28.8822C136.605 39.6321 147.007 48.3465 159.839 48.3465Z" fill="white"/>
<path d="M159.839 9.91797C172.481 9.91799 182.572 18.4876 182.572 28.8818C182.572 39.2763 172.481 47.8467 159.839 47.8467C147.197 47.8467 137.105 39.2763 137.105 28.8818C137.106 18.4876 147.197 9.91797 159.839 9.91797Z" stroke="#F96501" stroke-opacity="0.7"/>
<path d="M159.836 11.1719C171.46 11.1719 180.946 19.0767 180.946 28.8827C180.946 38.6887 171.46 46.5946 159.836 46.5946C148.197 46.5946 138.725 38.6887 138.725 28.8827C138.725 19.0768 148.197 11.172 159.836 11.1719Z" stroke="#F96501" stroke-opacity="0.7" stroke-width="3"/>
<path d="M276.279 113.647C284.473 113.647 291.115 107.885 291.115 100.776C291.115 93.6671 284.473 87.9043 276.279 87.9043C268.086 87.9043 261.444 93.6671 261.444 100.776C261.444 107.885 268.086 113.647 276.279 113.647Z" fill="white"/>
<path d="M276.28 88.4043C284.266 88.4044 290.615 94.0081 290.615 100.776C290.614 107.544 284.266 113.147 276.28 113.147C268.294 113.147 261.944 107.544 261.944 100.776C261.944 94.008 268.293 88.4043 276.28 88.4043Z" stroke="#F96501" stroke-opacity="0.7"/>
<path d="M276.279 89.6562C283.203 89.6565 288.994 94.5508 288.994 100.774C288.994 106.998 283.203 111.892 276.279 111.893C269.356 111.893 263.565 106.998 263.565 100.774C263.565 94.5507 269.356 89.6562 276.279 89.6562Z" stroke="#F96501" stroke-opacity="0.7" stroke-width="3"/>
</svg>
