<svg width="1366" height="148" viewBox="0 0 1366 148" fill="none" xmlns="http://www.w3.org/2000/svg">
<rect width="72.05" height="74" transform="matrix(-1 0 0 1 1438 0)" fill="#F96501"/>
<rect width="72.05" height="74" transform="matrix(-1 0 0 1 1149.8 0)" fill="#F96501"/>
<rect width="72.05" height="74" transform="matrix(-1 0 0 1 861.601 0)" fill="#F96501"/>
<rect width="72.05" height="74" transform="matrix(-1 0 0 1 573.399 0)" fill="#F96501"/>
<rect width="72.05" height="74" transform="matrix(-1 0 0 1 285.2 0)" fill="#F96501"/>
<rect width="72.05" height="74" transform="matrix(-1 0 0 1 1365.95 74)" fill="#1D234E"/>
<rect width="72.05" height="74" transform="matrix(-1 0 0 1 1077.75 74)" fill="#1D234E"/>
<rect width="72.05" height="74" transform="matrix(-1 0 0 1 789.55 74)" fill="#1D234E"/>
<rect width="72.05" height="74" transform="matrix(-1 0 0 1 501.351 74)" fill="#1D234E"/>
<rect width="72.05" height="74" transform="matrix(-1 0 0 1 213.149 74)" fill="#1D234E"/>
<rect width="72.05" height="74" transform="matrix(-1 0 0 1 1221.85 74)" fill="#1D234E"/>
<rect width="72.05" height="74" transform="matrix(-1 0 0 1 933.649 74)" fill="#1D234E"/>
<rect width="72.05" height="74" transform="matrix(-1 0 0 1 645.45 74)" fill="#1D234E"/>
<rect width="72.05" height="74" transform="matrix(-1 0 0 1 357.25 74)" fill="#1D234E"/>
<rect width="72.05" height="74" transform="matrix(-1 0 0 1 69.0498 74)" fill="#1D234E"/>
<rect width="72.05" height="74" transform="matrix(-1 0 0 1 1293.9 0)" fill="#F96501"/>
<rect width="72.05" height="74" transform="matrix(-1 0 0 1 1005.7 0)" fill="#F96501"/>
<rect width="72.05" height="74" transform="matrix(-1 0 0 1 717.5 0)" fill="#F96501"/>
<rect width="72.05" height="74" transform="matrix(-1 0 0 1 429.3 0)" fill="#F96501"/>
<rect width="72.05" height="74" transform="matrix(-1 0 0 1 141.101 0)" fill="#F96501"/>
</svg>
