<svg width="986" height="666" viewBox="0 0 986 666" fill="none" xmlns="http://www.w3.org/2000/svg">
<path d="M29.4971 13.6748L242.687 28.4016L599.411 157.784L771.438 369.216L919.193 646.915" stroke="#F96501"/>
<path d="M984.631 649.024L942.415 480.721L612.075 146.218L774.609 354.494L926.585 471.254" stroke="#F96501"/>
<path d="M456.932 383.939L684.898 617.458" stroke="#F96501"/>
<path d="M464.32 409.188L524.477 659.538" stroke="#F96501"/>
<path d="M181.471 636.4L437.932 388.154" stroke="#F96501"/>
<path d="M436.879 371.322L7.33301 193.552" stroke="#F96501"/>
<path d="M227.91 37.8691L1 180.927" stroke="#F96501"/>
<path d="M29.4971 585.901L159.311 638.497" stroke="#F96501"/>
<path d="M23.1582 571.77L218.406 526.537L571.965 164.685L813.651 567.562L790.43 600.172L236.348 534.953L204.686 549.679L276.453 658.024L23.1582 266.721" stroke="#F96501" stroke-width="5"/>
<path d="M573.028 163.042L10.5029 38.9189" stroke="#F96501"/>
<path d="M243.744 0.5C260.39 0.500005 273.851 13.4807 273.851 29.4531C273.851 45.4255 260.39 58.4062 243.744 58.4062C227.099 58.4062 213.638 45.4255 213.638 29.4531C213.638 13.4807 227.099 0.5 243.744 0.5Z" fill="white" stroke="#F96501"/>
<path d="M456.933 361.465C471.377 361.465 483.443 372.764 483.443 387.096C483.439 401.427 471.377 412.727 456.933 412.727C442.49 412.727 430.431 401.424 430.431 387.096C430.431 372.764 442.49 361.465 456.933 361.465Z" fill="white" stroke="#F96501"/>
<path d="M171.976 613.921C186.421 613.921 198.483 625.224 198.483 639.552C198.483 653.883 186.421 665.183 171.976 665.183C157.532 665.183 145.473 653.883 145.473 639.552C145.473 625.224 157.532 613.924 171.976 613.921Z" fill="white" stroke="#F96501"/>
</svg>
