<svg width="252" height="200" viewBox="0 0 252 200" fill="none" xmlns="http://www.w3.org/2000/svg">
<path d="M85.9346 86.3672L122.85 88.9173L184.62 111.321L214.408 147.932L239.993 196.018" stroke="#F96501" stroke-opacity="0.7"/>
<path d="M251.324 196.383L244.013 167.24L186.812 109.318L214.956 145.383L241.272 165.601" stroke="#F96501" stroke-opacity="0.7"/>
<path d="M159.948 150.481L199.422 190.917" stroke="#F96501" stroke-opacity="0.7"/>
<path d="M161.228 154.854L171.644 198.204" stroke="#F96501" stroke-opacity="0.7"/>
<path d="M112.25 194.198L156.658 151.212" stroke="#F96501" stroke-opacity="0.7"/>
<path d="M125.226 92.1963L159.948 148.661" stroke="#F96501" stroke-opacity="0.7"/>
<path d="M156.476 148.297L82.0967 117.515" stroke="#F96501" stroke-opacity="0.7"/>
<path d="M120.291 90.5566L81 115.328" stroke="#F96501" stroke-opacity="0.7"/>
<path d="M85.9346 185.453L108.413 194.561" stroke="#F96501" stroke-opacity="0.7"/>
<path d="M84.8369 183.006L118.646 175.173L179.867 112.516L221.717 182.277L217.696 187.924L121.752 176.63L116.27 179.181L128.697 197.941L84.8369 130.184" stroke="#F96501" stroke-opacity="0.7" stroke-width="5"/>
<path d="M180.051 112.232L82.6455 90.7393" stroke="#F96501" stroke-opacity="0.7"/>
<path d="M123.033 94.2001C125.96 94.2001 128.333 91.9167 128.333 89.1C128.333 86.2834 125.96 84 123.033 84C120.106 84 117.733 86.2834 117.733 89.1C117.733 91.9167 120.106 94.2001 123.033 94.2001Z" fill="white"/>
<path d="M123.033 84.5C125.702 84.5 127.833 86.5772 127.833 89.0996C127.833 91.6222 125.702 93.7002 123.033 93.7002C120.364 93.7002 118.233 91.6222 118.233 89.0996C118.234 86.5772 120.364 84.5 123.033 84.5Z" stroke="#F96501" stroke-opacity="0.7"/>
<path d="M159.948 146.59C162.449 146.59 164.539 148.546 164.539 151.028C164.538 153.51 162.449 155.466 159.948 155.466C157.448 155.466 155.359 153.509 155.359 151.028C155.359 148.546 157.448 146.59 159.948 146.59Z" fill="white" stroke="#F96501" stroke-opacity="0.7"/>
<path d="M110.606 190.305C113.107 190.305 115.196 192.262 115.196 194.743C115.196 197.225 113.107 199.181 110.606 199.181C108.105 199.181 106.017 197.225 106.017 194.743C106.017 192.262 108.105 190.305 110.606 190.305Z" fill="white" stroke="#F96501" stroke-opacity="0.7"/>
<path d="M5.93457 2.36816L42.8501 4.91823L104.62 27.3218L134.408 63.933L159.993 112.019" stroke="#F96501" stroke-opacity="0.7"/>
<path d="M171.324 112.384L164.013 83.2412L106.812 25.3193L134.956 61.384L161.272 81.6019" stroke="#F96501" stroke-opacity="0.7"/>
<path d="M79.9482 66.4824L119.422 106.918" stroke="#F96501" stroke-opacity="0.7"/>
<path d="M81.2275 70.8545L91.6441 114.205" stroke="#F96501" stroke-opacity="0.7"/>
<path d="M32.25 110.198L76.6582 67.2119" stroke="#F96501" stroke-opacity="0.7"/>
<path d="M45.2256 8.19727L79.9482 64.6619" stroke="#F96501" stroke-opacity="0.7"/>
<path d="M76.4759 64.298L2.09668 33.5156" stroke="#F96501" stroke-opacity="0.7"/>
<path d="M40.2912 6.55762L1 31.3291" stroke="#F96501" stroke-opacity="0.7"/>
<path d="M5.93457 101.453L28.4128 110.561" stroke="#F96501" stroke-opacity="0.7"/>
<path d="M4.83691 99.0067L38.6457 91.1743L99.8672 28.5166L141.717 98.2781L137.696 103.925L41.7524 92.6315L36.2699 95.1815L48.6969 113.942L4.83691 46.185" stroke="#F96501" stroke-opacity="0.7" stroke-width="5"/>
<path d="M100.051 28.2321L2.64551 6.73926" stroke="#F96501" stroke-opacity="0.7"/>
<path d="M43.0331 10.2001C45.9601 10.2001 48.3329 7.9167 48.3329 5.10003C48.3329 2.28336 45.9601 0 43.0331 0C40.1062 0 37.7334 2.28336 37.7334 5.10003C37.7334 7.9167 40.1062 10.2001 43.0331 10.2001Z" fill="white"/>
<path d="M43.0332 0.5C45.7021 0.500029 47.8328 2.57722 47.833 5.09961C47.833 7.62219 45.7023 9.70017 43.0332 9.7002C40.3641 9.7002 38.2334 7.62221 38.2334 5.09961C38.2336 2.5772 40.3642 0.5 43.0332 0.5Z" stroke="#F96501" stroke-opacity="0.7"/>
<path d="M79.9484 62.5908C82.4495 62.5908 84.5389 64.5474 84.5389 67.029C84.5382 69.5107 82.4495 71.4673 79.9484 71.4673C77.4475 71.4673 75.3594 69.5101 75.3594 67.029C75.3594 64.5474 77.4475 62.5908 79.9484 62.5908Z" fill="white" stroke="#F96501" stroke-opacity="0.7"/>
<path d="M30.6059 106.306C33.1071 106.306 35.1958 108.263 35.1958 110.744C35.1957 113.225 33.1071 115.182 30.6059 115.182C28.1048 115.182 26.0167 113.225 26.0166 110.744C26.0166 108.263 28.1047 106.306 30.6059 106.306Z" fill="white" stroke="#F96501" stroke-opacity="0.7"/>
</svg>
