<svg width="298" height="225" viewBox="0 0 298 225" fill="none" xmlns="http://www.w3.org/2000/svg">
<path d="M11.2583 8.5L8.66025 0L6.06218 8.5L0 15L8.66025 13L17.3205 15L11.2583 8.5Z" fill="#F96501"/>
<path d="M51.2583 8.5L48.6603 0L46.0622 8.5L40 15L48.6603 13L57.3205 15L51.2583 8.5Z" fill="#F96501"/>
<path d="M88.6603 0L91.2583 8.5L97.3205 15L88.6603 13L80 15L86.0622 8.5L88.6603 0Z" fill="#F96501"/>
<path d="M131.258 8.5L128.66 0L126.062 8.5L120 15L128.66 13L137.32 15L131.258 8.5Z" fill="#F96501"/>
<path d="M168.66 0L171.258 8.5L177.32 15L168.66 13L160 15L166.062 8.5L168.66 0Z" fill="#F96501"/>
<path d="M211.258 8.5L208.66 0L206.062 8.5L200 15L208.66 13L217.32 15L211.258 8.5Z" fill="#F96501"/>
<path d="M248.66 0L251.258 8.5L257.32 15L248.66 13L240 15L246.062 8.5L248.66 0Z" fill="#F96501"/>
<path d="M291.258 8.5L288.66 0L286.062 8.5L280 15L288.66 13L297.32 15L291.258 8.5Z" fill="#F96501"/>
<path d="M8.66025 30L11.2583 38.5L17.3205 45L8.66025 43L0 45L6.06218 38.5L8.66025 30Z" fill="#F96501"/>
<path d="M51.2583 38.5L48.6603 30L46.0622 38.5L40 45L48.6603 43L57.3205 45L51.2583 38.5Z" fill="#F96501"/>
<path d="M88.6603 30L91.2583 38.5L97.3205 45L88.6603 43L80 45L86.0622 38.5L88.6603 30Z" fill="#F96501"/>
<path d="M131.258 38.5L128.66 30L126.062 38.5L120 45L128.66 43L137.32 45L131.258 38.5Z" fill="#F96501"/>
<path d="M168.66 30L171.258 38.5L177.32 45L168.66 43L160 45L166.062 38.5L168.66 30Z" fill="#F96501"/>
<path d="M211.258 38.5L208.66 30L206.062 38.5L200 45L208.66 43L217.32 45L211.258 38.5Z" fill="#F96501"/>
<path d="M248.66 30L251.258 38.5L257.32 45L248.66 43L240 45L246.062 38.5L248.66 30Z" fill="#F96501"/>
<path d="M291.258 38.5L288.66 30L286.062 38.5L280 45L288.66 43L297.32 45L291.258 38.5Z" fill="#F96501"/>
<path d="M8.66025 60L11.2583 68.5L17.3205 75L8.66025 73L0 75L6.06218 68.5L8.66025 60Z" fill="#F96501"/>
<path d="M51.2583 68.5L48.6603 60L46.0622 68.5L40 75L48.6603 73L57.3205 75L51.2583 68.5Z" fill="#F96501"/>
<path d="M88.6603 60L91.2583 68.5L97.3205 75L88.6603 73L80 75L86.0622 68.5L88.6603 60Z" fill="#F96501"/>
<path d="M131.258 68.5L128.66 60L126.062 68.5L120 75L128.66 73L137.32 75L131.258 68.5Z" fill="#F96501"/>
<path d="M168.66 60L171.258 68.5L177.32 75L168.66 73L160 75L166.062 68.5L168.66 60Z" fill="#F96501"/>
<path d="M211.258 68.5L208.66 60L206.062 68.5L200 75L208.66 73L217.32 75L211.258 68.5Z" fill="#F96501"/>
<path d="M248.66 60L251.258 68.5L257.32 75L248.66 73L240 75L246.062 68.5L248.66 60Z" fill="#F96501"/>
<path d="M291.258 68.5L288.66 60L286.062 68.5L280 75L288.66 73L297.32 75L291.258 68.5Z" fill="#F96501"/>
<path d="M8.66025 90L11.2583 98.5L17.3205 105L8.66025 103L0 105L6.06218 98.5L8.66025 90Z" fill="#F96501"/>
<path d="M51.2583 98.5L48.6603 90L46.0622 98.5L40 105L48.6603 103L57.3205 105L51.2583 98.5Z" fill="#F96501"/>
<path d="M88.6603 90L91.2583 98.5L97.3205 105L88.6603 103L80 105L86.0622 98.5L88.6603 90Z" fill="#F96501"/>
<path d="M131.258 98.5L128.66 90L126.062 98.5L120 105L128.66 103L137.32 105L131.258 98.5Z" fill="#F96501"/>
<path d="M168.66 90L171.258 98.5L177.32 105L168.66 103L160 105L166.062 98.5L168.66 90Z" fill="#F96501"/>
<path d="M211.258 98.5L208.66 90L206.062 98.5L200 105L208.66 103L217.32 105L211.258 98.5Z" fill="#F96501"/>
<path d="M248.66 90L251.258 98.5L257.32 105L248.66 103L240 105L246.062 98.5L248.66 90Z" fill="#F96501"/>
<path d="M291.258 98.5L288.66 90L286.062 98.5L280 105L288.66 103L297.32 105L291.258 98.5Z" fill="#F96501"/>
<path d="M8.66025 120L11.2583 128.5L17.3205 135L8.66025 133L0 135L6.06218 128.5L8.66025 120Z" fill="#F96501"/>
<path d="M51.2583 128.5L48.6603 120L46.0622 128.5L40 135L48.6603 133L57.3205 135L51.2583 128.5Z" fill="#F96501"/>
<path d="M88.6603 120L91.2583 128.5L97.3205 135L88.6603 133L80 135L86.0622 128.5L88.6603 120Z" fill="#F96501"/>
<path d="M131.258 128.5L128.66 120L126.062 128.5L120 135L128.66 133L137.32 135L131.258 128.5Z" fill="#F96501"/>
<path d="M168.66 120L171.258 128.5L177.32 135L168.66 133L160 135L166.062 128.5L168.66 120Z" fill="#F96501"/>
<path d="M211.258 128.5L208.66 120L206.062 128.5L200 135L208.66 133L217.32 135L211.258 128.5Z" fill="#F96501"/>
<path d="M248.66 120L251.258 128.5L257.32 135L248.66 133L240 135L246.062 128.5L248.66 120Z" fill="#F96501"/>
<path d="M291.258 128.5L288.66 120L286.062 128.5L280 135L288.66 133L297.32 135L291.258 128.5Z" fill="#F96501"/>
<path d="M8.66025 150L11.2583 158.5L17.3205 165L8.66025 163L0 165L6.06218 158.5L8.66025 150Z" fill="#F96501"/>
<path d="M51.2583 158.5L48.6603 150L46.0622 158.5L40 165L48.6603 163L57.3205 165L51.2583 158.5Z" fill="#F96501"/>
<path d="M88.6603 150L91.2583 158.5L97.3205 165L88.6603 163L80 165L86.0622 158.5L88.6603 150Z" fill="#F96501"/>
<path d="M131.258 158.5L128.66 150L126.062 158.5L120 165L128.66 163L137.32 165L131.258 158.5Z" fill="#F96501"/>
<path d="M168.66 150L171.258 158.5L177.32 165L168.66 163L160 165L166.062 158.5L168.66 150Z" fill="#F96501"/>
<path d="M211.258 158.5L208.66 150L206.062 158.5L200 165L208.66 163L217.32 165L211.258 158.5Z" fill="#F96501"/>
<path d="M248.66 150L251.258 158.5L257.32 165L248.66 163L240 165L246.062 158.5L248.66 150Z" fill="#F96501"/>
<path d="M291.258 158.5L288.66 150L286.062 158.5L280 165L288.66 163L297.32 165L291.258 158.5Z" fill="#F96501"/>
<path d="M8.66025 180L11.2583 188.5L17.3205 195L8.66025 193L0 195L6.06218 188.5L8.66025 180Z" fill="#F96501"/>
<path d="M51.2583 188.5L48.6603 180L46.0622 188.5L40 195L48.6603 193L57.3205 195L51.2583 188.5Z" fill="#F96501"/>
<path d="M88.6603 180L91.2583 188.5L97.3205 195L88.6603 193L80 195L86.0622 188.5L88.6603 180Z" fill="#F96501"/>
<path d="M131.258 188.5L128.66 180L126.062 188.5L120 195L128.66 193L137.32 195L131.258 188.5Z" fill="#F96501"/>
<path d="M168.66 180L171.258 188.5L177.32 195L168.66 193L160 195L166.062 188.5L168.66 180Z" fill="#F96501"/>
<path d="M211.258 188.5L208.66 180L206.062 188.5L200 195L208.66 193L217.32 195L211.258 188.5Z" fill="#F96501"/>
<path d="M248.66 180L251.258 188.5L257.32 195L248.66 193L240 195L246.062 188.5L248.66 180Z" fill="#F96501"/>
<path d="M291.258 188.5L288.66 180L286.062 188.5L280 195L288.66 193L297.32 195L291.258 188.5Z" fill="#F96501"/>
<path d="M8.66025 210L11.2583 218.5L17.3205 225L8.66025 223L0 225L6.06218 218.5L8.66025 210Z" fill="#F96501"/>
<path d="M51.2583 218.5L48.6603 210L46.0622 218.5L40 225L48.6603 223L57.3205 225L51.2583 218.5Z" fill="#F96501"/>
<path d="M88.6603 210L91.2583 218.5L97.3205 225L88.6603 223L80 225L86.0622 218.5L88.6603 210Z" fill="#F96501"/>
<path d="M131.258 218.5L128.66 210L126.062 218.5L120 225L128.66 223L137.32 225L131.258 218.5Z" fill="#F96501"/>
<path d="M168.66 210L171.258 218.5L177.32 225L168.66 223L160 225L166.062 218.5L168.66 210Z" fill="#F96501"/>
<path d="M211.258 218.5L208.66 210L206.062 218.5L200 225L208.66 223L217.32 225L211.258 218.5Z" fill="#F96501"/>
<path d="M248.66 210L251.258 218.5L257.32 225L248.66 223L240 225L246.062 218.5L248.66 210Z" fill="#F96501"/>
<path d="M291.258 218.5L288.66 210L286.062 218.5L280 225L288.66 223L297.32 225L291.258 218.5Z" fill="#F96501"/>
</svg>
